<mxfile host="app.diagrams.net" modified="2024-03-05T14:19:25.365Z" agent="Mozilla/5.0 (Windows NT 10.0; Win64; x64) AppleWebKit/537.36 (KHTML, like Gecko) Chrome/121.0.0.0 Safari/537.36" version="24.0.1" etag="I0HaM3m4XI9bNn-1MPC2" type="github">
  <diagram name="Lapa-1" id="7SVR8qe5rFU768_dZ3UX">
    <mxGraphModel>
      <root>
        <mxCell id="0" />
        <mxCell id="1" parent="0" />
      </root>
    </mxGraphModel>
  </diagram>
</mxfile>
